<svg width="6044" height="4694" viewBox="0 0 6044 4694" fill="none" xmlns="http://www.w3.org/2000/svg">
<path fill-rule="evenodd" clip-rule="evenodd" d="M2938.75 425.039L5288.44 2079.56V3204.54H5042.96V3438.09L5367.97 3521.07V3794.91L5237.35 3773.34V4079.53H5208.35V3768.55L5102.7 3751.11V4079.53H5073.7V3746.32L4653.79 3677V4128.2H4624.79V3672.21L4501.08 3651.78V4128.2H4472.08V3647L4069.07 3580.46V4176.86H4040.07V3575.67L3913.67 3554.8V4176.86H3884.67V3550.02L3527.83 3491.1V4212.67H3498.83V3486.31L3347.8 3461.38V4212.67H3318.8V3456.59L2935.76 3393.35L2876.98 3395.73V4252.7H2847.98V3396.9L2692.3 3403.19V4252.7H2663.3V3404.36L1859.51 3436.84V4154.14H1830.51V3438.01L1698.12 3443.36V4154.14H1669.12V3444.53L1041.69 3469.88V4074.35H1012.69V3471.05L877.555 3476.51V4074.35H848.555V3477.68L491.509 3492.11V3173.46L906.413 3131.79V2801.78L571.032 2760.29V1309.45L2938.75 425.039ZM935.413 3128.86L2937.66 2925.82L5013.96 3430.9V3175.54H5185.95L2935.32 2413.12L693.046 2746.16L935.413 2776.15V3128.86ZM600.032 2730.66V1329.57L2922.15 462.194V2385.76L600.032 2730.66ZM2951.15 2387.86L5259.44 3169.81V2094.61L2951.15 469.243V2387.86ZM5024.87 3463.4L2951.15 2958.94V3366.5L5338.97 3760.73V3543.59L5025.03 3463.44L5024.87 3463.4ZM2922.15 3364.88V2956.54L922.376 3159.33L922.362 3159.34L520.509 3199.69V3461.91L2922.15 3364.88Z" fill="url(#paint0_linear_117_951)"/>
<path fill-rule="evenodd" clip-rule="evenodd" d="M3904.05 3234.36V3538.74H3944.64H3985.22H4056.25C4106.67 3538.74 4147.56 3497.85 4147.56 3447.43C4147.56 3420.25 4135.66 3395.85 4116.81 3379.12C4135.54 3364.25 4147.56 3341.3 4147.56 3315.53C4147.56 3270.7 4111.22 3234.36 4066.39 3234.36H3985.22H3944.64H3904.05ZM4355.55 3234.36V3538.74H4436.72V3406.84H4477.31L4520.47 3538.74H4573.69H4578.76H4621.89H4637.09V3498.15H4621.89H4598.41L4547.06 3366.26H4523.07L4575.8 3274.94H4615.55V3234.36H4552.36H4552.13V3234.76L4476.21 3366.26H4436.72V3234.36H4355.55ZM4718.26 3408.11V3538.74H4799.43V3417H4879.33C4929.75 3417 4970.65 3376.1 4970.65 3325.67C4970.65 3275.25 4929.75 3234.36 4879.33 3234.36H4799.43H4757.59H4718.26H4677.69V3274.94H4718.26V3408.11ZM5057.47 3274.94H5091.71L4970.65 3538.74H5027.64L5060.83 3466.44H5156.23L5175.61 3538.74H5236.77H5251.59H5277.36V3498.16H5240.72L5170.04 3234.36H5100.58H5094.04H5057.47V3274.94ZM5318.16 3274.94H5358.73V3538.74H5439.9L5541.36 3333.57V3538.74H5622.53V3234.36H5541.36L5439.9 3439.15V3234.36H5358.73H5318.16V3274.94ZM4016.94 3498.15H3985.22V3396.7H4016.94C4044.95 3396.7 4067.67 3419.42 4067.67 3447.43C4067.67 3475.44 4044.95 3498.15 4016.94 3498.15ZM5145.37 3425.87H5079.44L5121.07 3335.19L5145.37 3425.87ZM4838.75 3376.4H4799.43V3274.94H4838.75C4866.77 3274.94 4889.49 3297.66 4889.49 3325.67C4889.49 3353.69 4866.77 3376.4 4838.75 3376.4ZM4025.81 3356.11H3985.22V3274.94H4025.81C4048.22 3274.94 4066.39 3293.12 4066.39 3315.53C4066.39 3337.94 4048.22 3356.11 4025.81 3356.11ZM5439.9 3153.2V3193.77H5569.26V3153.2H5439.9ZM3532.64 2968.03C3532.64 3018.46 3573.52 3059.34 3623.94 3059.34H3684.82C3735.24 3059.34 3776.14 3018.46 3776.14 2968.03C3776.14 2940.85 3764.27 2916.45 3745.42 2899.72C3764.14 2884.84 3776.14 2861.89 3776.14 2836.13C3776.14 2791.3 3739.8 2754.96 3694.97 2754.96H3613.8C3568.97 2754.96 3532.64 2791.3 3532.64 2836.13H3573.21C3573.21 2813.72 3591.4 2795.56 3613.8 2795.56H3654.38C3676.79 2795.56 3694.97 2813.72 3694.97 2836.13C3694.97 2858.54 3681.01 2877.99 3654.38 2879.26L3641.71 2880.53V2917.32C3669.14 2917.99 3694.97 2940.43 3694.97 2968.03C3694.97 2996.05 3672.26 3018.76 3644.24 3018.76H3623.94C3595.93 3018.76 3573.21 2996.05 3573.21 2968.03H3532.64ZM3984.12 2753.7V3058.07H4065.29V2926.17H4105.88L4149.06 3058.07H4202.26H4207.34H4250.45H4265.68V3017.49H4250.45H4226.98L4175.62 2885.6H4151.66L4204.36 2794.29H4244.12V2753.7H4180.92H4180.71V2754.08L4104.78 2885.6H4065.29V2753.7H3984.12ZM4346.85 2927.44V3058.07H4428.02V2936.33H4507.91C4558.33 2936.33 4599.22 2895.42 4599.22 2845C4599.22 2794.58 4558.33 2753.7 4507.91 2753.7H4428.02H4386.16H4346.85H4306.26V2794.29H4346.85V2927.44ZM4720.27 2794.29L4599.22 3058.07H4656.21L4689.38 2985.79H4784.82L4804.19 3058.07H4865.36H4880.16H4905.93V3017.49H4869.29L4798.61 2753.7H4729.15H4722.63H4686.04V2794.29H4720.27ZM4987.3 2794.29V3058.07H5068.47V2926.17H5088.76V2942.04C5088.76 3006.12 5140.73 3058.07 5204.81 3058.07H5216.22C5280.3 3058.07 5332.26 3006.12 5332.26 2942.04V2869.74C5332.26 2805.66 5280.3 2753.7 5216.22 2753.7H5204.81C5140.73 2753.7 5088.76 2805.66 5088.76 2869.74V2885.6H5068.47V2753.7H4987.3H4946.72V2794.29H4987.3ZM5251.1 2975.64C5251.1 2998.04 5232.93 3016.23 5210.52 3016.23C5188.11 3016.23 5169.93 2998.04 5169.93 2975.64V2836.13C5169.93 2813.72 5188.11 2795.56 5210.52 2795.56C5232.93 2795.56 5251.1 2813.72 5251.1 2836.13V2975.64ZM4773.95 2945.2H4708.01L4749.64 2854.5L4773.95 2945.2ZM4467.32 2895.74H4428.02V2794.29H4467.32C4495.34 2794.29 4518.05 2816.99 4518.05 2845C4518.05 2873.02 4495.34 2895.74 4467.32 2895.74ZM1130.42 2096.75V2401.13H1211.58H1281.34H1362.51H1427.18H1455.09H1508.35H1548.94V2360.55H1508.35V2096.75H1427.18V2360.55H1362.51V2096.75H1281.34V2360.55H1211.58V2096.75H1130.42ZM1589.52 2285.08C1589.52 2349.15 1641.49 2401.13 1705.57 2401.13H1716.97C1781.05 2401.13 1833.02 2349.15 1833.02 2285.08V2212.8C1833.02 2148.72 1781.05 2096.75 1716.97 2096.75H1705.57C1641.49 2096.75 1589.52 2148.72 1589.52 2212.8V2285.08ZM1914.19 2392.25V2401.13H1953.51H1995.36H2075.26C2125.68 2401.13 2166.58 2360.24 2166.58 2309.82C2166.58 2259.4 2125.68 2218.49 2075.26 2218.49H1995.36V2137.33H2076.52V2177.92H2117.12H2157.69V2137.33V2096.75H1995.36H1914.19H1873.61V2137.33H1914.19V2227.38V2392.25ZM2495.63 2137.33L2374.56 2401.13H2431.56L2464.75 2328.83H2560.16L2579.53 2401.13H2640.7H2655.51H2681.27V2360.55H2644.63L2573.95 2096.75H2504.5H2497.97H2461.37V2137.33H2495.63ZM2872.99 2276.21V2401.13H2954.16V2275.56H2975.08C2990.3 2275.56 2998.59 2277.48 3006.78 2291.43C3014.97 2305.38 3018.24 2399.86 3018.24 2399.86H3099.93C3099.93 2399.86 3094.46 2315.52 3086.76 2286.99C3081.12 2266.05 3057.32 2249.22 3030.58 2241.74L3058.55 2137.33H3099.59V2096.75H3027.42H3027.31V2097.18L2989.71 2237.52H2954.16V2096.75H2872.99V2238.17H2832.13L2794.36 2097.25V2096.75H2794.23H2722.06V2137.33H2763.1L2791.25 2242.43C2764.61 2249.94 2740.92 2266.73 2735.3 2287.61C2727.6 2316.15 2722.13 2400.5 2722.13 2400.5H2803.82C2803.82 2400.5 2807.09 2306.01 2815.28 2292.06C2823.47 2278.11 2831.76 2276.21 2846.98 2276.21H2872.99ZM3348.57 2137.33V2401.13H3429.74V2137.33H3510.91V2177.92H3551.5H3592.07V2137.33V2096.75H3429.74H3348.57H3308V2137.33H3348.57ZM3673.24 2270.49V2401.13H3754.41V2279.38H3834.31C3884.73 2279.38 3925.62 2238.48 3925.62 2188.06C3925.62 2137.64 3884.73 2096.75 3834.31 2096.75H3754.41H3712.55H3673.24H3632.65V2137.33H3673.24V2270.49ZM4006.78 2137.33V2401.13H4087.95L4189.41 2195.98V2401.13H4270.58H4311.16V2360.55H4270.58V2096.75H4189.41L4087.95 2301.54V2096.75H4006.78H3966.21V2137.33H4006.78ZM4392.32 2137.33V2401.13H4473.49V2246.25L4574.1 2400.83L4574.17 2400.75L4574.31 2400.98L4673.89 2248.01V2401.13H4755.05H4795.63V2360.55H4755.05V2096.75H4711.3L4711.18 2096.93L4710.97 2096.78L4592.01 2279.56L4473.49 2097.43V2096.75H4473.05H4392.32H4351.75V2137.33H4392.32ZM4876.8 2137.33V2401.13H4957.96H4998.55V2360.55H4957.96V2096.75H4876.8H4836.22V2137.33H4876.8ZM5160.2 2137.33L5039.13 2401.13H5096.13L5189.55 2197.57L5244.1 2401.13H5305.27H5320.08H5345.84V2360.55H5309.22L5238.53 2096.75H5169.07H5162.54H5125.94V2137.33H5160.2ZM5386.63 2285.08C5386.63 2349.15 5438.6 2401.13 5502.68 2401.13H5514.09C5578.16 2401.13 5630.13 2349.15 5630.13 2285.08V2212.8C5630.13 2148.72 5578.16 2096.75 5514.09 2096.75H5502.68C5438.6 2096.75 5386.63 2148.72 5386.63 2212.8V2285.08ZM2034.68 2360.55H1995.36V2259.09H2034.68C2062.69 2259.09 2085.41 2281.81 2085.41 2309.82C2085.41 2337.83 2062.69 2360.55 2034.68 2360.55ZM1751.85 2318.69C1751.85 2341.1 1733.69 2359.28 1711.28 2359.28C1688.87 2359.28 1670.69 2341.1 1670.69 2318.69V2179.19C1670.69 2156.78 1688.87 2138.59 1711.28 2138.59C1733.69 2138.59 1751.85 2156.78 1751.85 2179.19V2318.69ZM5548.97 2318.69C5548.97 2341.1 5530.8 2359.28 5508.39 2359.28C5485.98 2359.28 5467.8 2341.1 5467.8 2318.69V2179.19C5467.8 2156.78 5485.98 2138.59 5508.39 2138.59C5530.8 2138.59 5548.97 2156.78 5548.97 2179.19V2318.69ZM2549.29 2288.25H2483.37L2524.98 2197.56L2549.29 2288.25ZM3793.72 2238.79H3754.41V2137.33H3793.72C3821.73 2137.33 3844.45 2160.05 3844.45 2188.06C3844.45 2216.07 3821.73 2238.79 3793.72 2238.79ZM1093.64 1489.27V1753.05H1174.81V1621.15H1276.27V1753.05H1357.44H1398.02V1712.48H1357.44V1448.68H1276.27V1580.58H1174.81V1448.68H1093.64H1053.07V1489.27H1093.64ZM1559.66 1489.27L1438.61 1753.05H1495.59L1528.76 1680.77H1624.19L1643.56 1753.05H1704.73H1719.54H1745.32V1712.48H1708.68L1638 1448.68H1568.53H1562H1525.41V1489.27H1559.66ZM1826.68 1489.27V1753.05H1907.85V1598.19L2008.44 1752.76L2008.51 1752.67L2008.66 1752.91L2108.23 1599.94V1753.05H2189.4H2229.99V1712.48H2189.4V1448.68H2145.64L2145.53 1448.84L2145.33 1448.71L2026.37 1631.47L1907.85 1449.39V1448.68H1907.39H1826.68H1786.11V1489.27H1826.68ZM2498.86 1489.27V1753.05H2580.02H2620.6V1712.48H2580.02V1489.27H2610.46V1542.54H2640.89H2681.47V1489.27V1448.68H2580.02H2498.86H2397.39V1489.27V1542.54H2437.98H2468.42V1489.27H2498.86ZM2762.64 1622.44V1753.05H2843.81V1631.31H2923.71C2974.12 1631.31 3015.03 1590.41 3015.03 1539.99C3015.03 1489.56 2974.12 1448.68 2923.71 1448.68H2843.81H2801.96H2762.64H2722.06V1489.27H2762.64V1622.44ZM3096.2 1489.27V1753.05H3177.36H3339.7V1712.48V1671.89H3299.11H3258.53V1712.48H3177.36V1621.15H3299.11V1580.58H3177.36V1489.27H3258.53V1529.85H3299.11H3339.7V1489.27V1448.68H3177.36H3096.2H3055.6V1489.27H3096.2ZM3420.87 1744.18V1753.05H3460.17H3502.03H3581.93C3632.35 1753.05 3673.24 1712.17 3673.24 1661.75C3673.24 1611.32 3632.35 1570.44 3581.93 1570.44H3502.03V1489.27H3583.2V1529.85H3623.78H3664.37V1489.27V1448.68H3502.03H3420.87H3380.27V1489.27H3420.87V1579.31V1744.18ZM3808.25 1489.27L3687.2 1753.05H3744.19L3777.35 1680.77H3872.78L3892.15 1753.05H3953.32H3968.13H3993.9V1712.48H3957.27L3886.59 1448.68H3817.12H3810.59H3774V1489.27H3808.25ZM3541.34 1712.48H3502.03V1611.01H3541.34C3569.35 1611.01 3592.07 1633.73 3592.07 1661.75C3592.07 1689.76 3569.35 1712.48 3541.34 1712.48ZM1613.32 1640.18H1547.4L1589.03 1549.5L1613.32 1640.18ZM3861.91 1640.18H3795.99L3837.62 1549.5L3861.91 1640.18ZM2883.13 1590.72H2843.81V1489.27H2883.13C2911.14 1489.27 2933.86 1511.97 2933.86 1539.99C2933.86 1568 2911.14 1590.72 2883.13 1590.72ZM2872.99 1280.01V1320.58H2954.16V1280.01H3098.24H3119.03V1320.58H3200.2V1280.01H3199.98V1239.41H3163.34L3092.67 975.633H3023.21H3016.68H2980.08V1016.21H3014.34L2911.9 1239.41H2872.99V1280.01ZM454.442 1016.21V1280.01H535.609V975.633H454.442H413.866V1016.21H454.442ZM784.198 1149.37V1280.01H865.366V1158.25H945.266C995.69 1158.25 1036.57 1117.36 1036.57 1066.94C1036.57 1016.51 995.69 975.633 945.266 975.633H865.366H823.506H784.198H743.606V1016.21H784.198V1149.37ZM1077.15 1163.96C1077.15 1228.04 1129.12 1280.01 1193.2 1280.01H1204.62C1268.7 1280.01 1320.65 1228.04 1320.65 1163.96V1091.66C1320.65 1027.58 1268.7 975.633 1204.62 975.633H1193.2C1129.12 975.633 1077.15 1027.58 1077.15 1091.66V1163.96ZM1361.24 1163.96C1361.24 1228.04 1413.21 1280.01 1477.29 1280.01H1488.7C1551.29 1280.01 1602.33 1230.43 1604.66 1168.4H1523.58V1197.57C1523.58 1219.98 1505.4 1238.15 1482.99 1238.15C1460.58 1238.15 1442.41 1219.98 1442.41 1197.57V1058.07C1442.41 1035.66 1460.58 1017.48 1482.99 1017.48C1505.4 1017.48 1523.58 1035.66 1523.58 1058.07V1087.24H1604.66C1602.33 1025.21 1551.29 975.633 1488.7 975.633H1477.29C1413.21 975.633 1361.24 1027.58 1361.24 1091.66V1163.96ZM1746.78 1016.21V1280.01H1827.95H1868.54V1239.41H1827.95V1016.21H1858.39V1069.48H1888.82H1929.42V1016.21V975.633H1827.95H1746.78H1645.32V1016.21V1069.48H1685.91H1716.35V1016.21H1746.78ZM2010.58 1016.21V1280.01H2091.75L2193.2 1074.87V1280.01H2274.37H2314.96V1239.41H2274.37V975.633H2193.2L2091.75 1180.39V975.633H2010.58H1969.99V1016.21H2010.58ZM2563.53 1016.21V1280.01H2644.7V975.633H2563.53H2522.95V1016.21H2563.53ZM3281.36 1016.21V1280.01H3362.53H3403.11V1239.41H3362.53V975.633H3281.36H3240.77V1016.21H3281.36ZM3463.98 1239.41V1280.01H3476.67H3557.84H3570.4L3628.96 1178.54H3635.2V1280.01H3716.37H3756.94V1239.41H3716.37V1169.67V1004.78V975.633H3635.2V995.912H3555.3C3504.88 995.912 3463.98 1036.81 3463.98 1087.24C3463.98 1131.36 3495.29 1168.17 3536.89 1176.68C3536.82 1176.67 3536.74 1176.67 3536.67 1176.65L3500.24 1239.41H3463.98ZM3898.98 1016.21V1280.01H3980.15H4020.74V1239.41H3980.15V1016.21H4010.59V1069.48H4041.04H4081.61V1016.21V975.633H3980.15H3898.98H3797.54V1016.21V1069.48H3838.11H3868.55V1016.21H3898.98ZM4162.78 1016.21V1280.01H4243.95L4345.41 1074.84V1280.01H4426.58H4467.16V1239.41H4426.58V975.633H4345.41L4243.95 1180.42V975.633H4162.78H4122.21V1016.21H4162.78ZM3087.36 1239.41H2968.91L3043.69 1076.47L3087.36 1239.41ZM1239.48 1197.57C1239.48 1219.98 1221.32 1238.15 1198.91 1238.15C1176.5 1238.15 1158.32 1219.98 1158.32 1197.57V1058.07C1158.32 1035.66 1176.5 1017.48 1198.91 1017.48C1221.32 1017.48 1239.48 1035.66 1239.48 1058.07V1197.57ZM3635.2 1137.97H3595.88C3567.86 1137.97 3545.14 1115.25 3545.14 1087.24C3545.14 1059.22 3567.86 1036.5 3595.88 1036.5H3635.2V1137.97ZM904.674 1117.67H865.366V1016.21H904.674C932.687 1016.21 955.406 1038.93 955.406 1066.94C955.406 1094.95 932.687 1117.67 904.674 1117.67ZM454.442 899.535C454.442 918.445 469.786 933.773 488.697 933.773H501.371C520.282 933.773 535.609 918.445 535.609 899.535C535.609 880.625 520.282 865.297 501.371 865.297H488.697C469.786 865.297 454.442 880.625 454.442 899.535ZM2563.53 899.535C2563.53 918.445 2578.86 933.773 2597.77 933.773H2610.46C2629.37 933.773 2644.7 918.445 2644.7 899.535C2644.7 880.625 2629.37 865.297 2610.46 865.297H2597.77C2578.86 865.297 2563.53 880.625 2563.53 899.535ZM3281.36 899.535C3281.36 918.445 3296.69 933.773 3315.6 933.773H3328.28C3347.19 933.773 3362.53 918.445 3362.53 899.535C3362.53 880.625 3347.19 865.297 3328.28 865.297H3315.6C3296.69 865.297 3281.36 880.625 3281.36 899.535ZM4444.85 1447.37V1488.06H4343.17L4343.17 1711.83H4383.84V1752.52L4343.17 1752.52H4261.82V1488.06H4160.14V1447.37H4261.82H4343.17H4444.85ZM4444.85 1541.46V1488.06L4404.18 1488.06H4373.67V1541.46H4404.18H4444.85ZM4231.32 1488.06H4200.82L4160.14 1488.06V1541.46H4200.81H4231.32V1488.06ZM4621.59 1639.36H4556.02L4597.42 1548.45L4621.59 1639.36ZM4632.41 1680.05H4537.49L4504.48 1752.52H4447.77L4568.22 1488.06H4534.14V1447.37L4577.04 1447.37H4646.15L4716.47 1711.83H4752.92V1752.52L4727.29 1752.52H4651.68L4632.41 1680.05ZM4874.73 1752.52H4794.27V1447.37H4874.73V1579.6H4913.88L4989.14 1447.77V1447.37H5052V1488.06H5012.59L4960.33 1579.6H4984.11L5035.01 1711.83H5073.37V1752.52L5058.29 1752.52L5015.54 1752.52L5010.51 1752.52L4957.77 1752.52L4914.97 1620.29H4874.73V1752.52Z" fill="white"/>
<defs>
<linearGradient id="paint0_linear_117_951" x1="2929.74" y1="441.299" x2="2929.74" y2="4119.46" gradientUnits="userSpaceOnUse">
<stop stop-color="#0EB2D6"/>
<stop offset="0.315" stop-color="#00B2FF"/>
<stop offset="0.585" stop-color="#3FADFD"/>
<stop offset="1" stop-color="#00B2FF" stop-opacity="0"/>
</linearGradient>
</defs>
</svg>
